<svg width="10" height="10" viewBox="0 0 10 10" fill="none" xmlns="http://www.w3.org/2000/svg">
<path d="M9.0202 6.81932L7.60624 6.65788C7.43998 6.63835 7.27146 6.65676 7.11334 6.71172C6.95521 6.76668 6.8116 6.85676 6.69329 6.97519L5.66901 7.99948C4.08871 7.19576 2.80423 5.91127 2.00051 4.33096L3.03036 3.30111C3.26973 3.06173 3.38664 2.72773 3.34767 2.38815L3.18623 0.985323C3.15467 0.713761 3.02435 0.463289 2.82007 0.281595C2.61579 0.0999016 2.35183 -0.000324129 2.07845 7.87527e-07H1.1154C0.486353 7.87527e-07 -0.0369224 0.523279 0.00204494 1.15233C0.297083 5.90636 4.09918 9.70291 8.84763 9.99795C9.47667 10.0369 9.99995 9.51364 9.99995 8.8846V7.92154C10.0055 7.3593 9.58244 6.88612 9.0202 6.81932Z" fill="#152766" fill-opacity="0.7"/>
</svg>
