<svg id="_x33_0" enable-background="new 0 0 64 64" height="512" viewBox="0 0 64 64" width="512" xmlns="http://www.w3.org/2000/svg"><g><g><g><path d="m15.04 53.98c.91 1.25 2.38 2.02 3.99 2.02h1.97 23 8 6.88c1.45 0 2.79.98 3.06 2.4.37 1.92-1.09 3.6-2.94 3.6h-42.98c-3.13 0-5.87-2.07-6.73-5.08l-7.17-25.1c-.46-1.59.47-3.25 2.06-3.7.26-.08.54-.12.82-.12 1.33 0 2.52.89 2.88 2.17l1.54 5.37.6 2.12 2.06 7.2 2.15 7.51c.17.59.45 1.14.81 1.61z" fill="#969faa"/></g><g><path d="m11.17 4c.41-1.17 1.52-2.01 2.83-2.01h7.99c1.11 0 2.11.45 2.83 1.17.73.73 1.18 1.73 1.18 2.84 0 1.78-1.16 3.29-2.77 3.81-.39.12-.8.19-1.23.19h-2c-4.97 0-9 4.03-9 9v4l-2.91-.49c-.89-.15-1.66-.6-2.21-1.25s-.88-1.48-.88-2.39c0-.57.13-1.14.39-1.65l.61-1.22-.84-1.26c-.76-1.13-1.16-2.47-1.16-3.83 0-3.82 3.09-6.91 6.91-6.91z" fill="#fcd770"/></g><g><path d="m22.18 41.82c.32.71 1.03 1.18 1.82 1.18-.64 3.82-2.88 7.17-6.16 9.22l-2.8 1.76c-.36-.47-.64-1.02-.81-1.61l-2.15-7.51c.98.72 2.18 1.14 3.48 1.14 1.56 0 3.06-.62 4.16-1.72z" fill="#5cd6b3"/></g><g><path d="m21.78 34.22-3.78 3.78-.56-2.81-.84-4.19c-.18-.88-.64-1.62-1.29-2.16-.65-.53-1.48-.84-2.37-.84h1.03c1.07 0 2.09.21 3.03.6 2.22.91 3.97 2.79 4.66 5.2z" fill="#5cd6b3"/></g><g><path d="m16.6 31 .84 4.19-7.42 2.47-.6-2.12-.2-3.6c-.08-1.43.65-2.7 1.78-3.39.56-.35 1.23-.55 1.94-.55.89 0 1.72.31 2.37.84.65.54 1.11 1.28 1.29 2.16z" fill="#5cd6b3"/></g><g><path d="m38.85 44.13-10.81 9.27c-1.96 1.68-4.46 2.6-7.04 2.6h-1.97c-1.61 0-3.08-.77-3.99-2.02l2.8-1.76c3.28-2.05 5.52-5.4 6.16-9.22.21 0 .43-.03.63-.1l15.69-5.23c.4-.14.68-.52.68-.95v-.72c2.32 0 4.31 1.65 4.74 3.93l2.26 12.07h-6z" fill="#cf9e76"/></g><g><path d="m52 55v1h-8c-1.1 0-2-.9-2-2v-2h6 1c1.66 0 3 1.34 3 3z" fill="#fcd770"/></g><g><path d="m18 38 3.78-3.78 3.39-3.39c.53-.53 1.25-.83 2-.83.78 0 1.49.32 2 .83s.83 1.22.83 2c0 .75-.3 1.47-.83 2l-3.51 3.51-3.48 3.48-2.46 2.46c-1.1 1.1-2.6 1.72-4.16 1.72-1.3 0-2.5-.42-3.48-1.14l-2.06-7.2 7.42-2.47z" fill="#f0d0b4"/></g><g><path d="m17 23.5v5.1c-.94-.39-1.96-.6-3.03-.6h-1.03c-.71 0-1.38.2-1.94.55v-.01-5.54-4c0-4.97 4.03-9 9-9h2c.43 0 .84-.07 1.23-.19l1.77 6.19-2 1v3.44c0 1.97-1.59 3.56-3.56 3.56-.29 0-.58-.04-.86-.11z" fill="#f0d0b4"/></g><g><path d="m58.99 20.14c1.73.44 3.01 2 3.01 3.86 0 2.21-1.79 4-4 4h-17v-6h6c2.76 0 5-2.24 5-5 0-1-.3-1.94-.81-2.72.57-.18 1.18-.28 1.81-.28 3.31 0 6 2.69 6 6 0 .05-.01.09-.01.14z" fill="#e6e9ed"/></g><g><path d="m51.19 14.28c.51.78.81 1.72.81 2.72 0 2.76-2.24 5-5 5h-6v-3c0-.55-.45-1-1-1h-2c-.55 0-1 .45-1 1v3h-3c-2.76 0-5-2.24-5-5s2.24-5 5-5c.72 0 1.4.16 2.02.43-.01-.14-.02-.28-.02-.43 0-3.31 2.69-6 6-6s6 2.69 6 6c0 .03 0 .07-.01.1 1.34.27 2.48 1.07 3.2 2.18z" fill="#e6e9ed"/></g><g><path d="m24.63 42.9c-.2.07-.42.1-.63.1-.79 0-1.5-.47-1.82-1.18l3.48-3.48 11.34-3.78v-12.56-3c0-.55.45-1 1-1h2c.55 0 1 .45 1 1v3 6 8 .72c0 .43-.28.81-.68.95z" fill="#ccd1d9"/></g><g><circle cx="55" cy="6" fill="#fcd770" r="4"/></g></g><g><path d="m58.882 55h-5.882c0-2.206-1.794-4-4-4h-.17l-2.11-11.253c-.453-2.416-2.365-4.248-4.72-4.658v-6.089h16c2.757 0 5-2.243 5-5 0-2.013-1.211-3.801-3.023-4.579-.296-3.59-3.312-6.421-6.977-6.421-.479 0-.95.066-1.416.162-.685-.819-1.575-1.469-2.615-1.831-.338-3.547-3.334-6.331-6.969-6.331-3.554 0-6.497 2.662-6.941 6.096-.349-.064-.703-.096-1.059-.096-3.309 0-6 2.691-6 6s2.691 6 6 6h2v10.838l-6.635 2.211.514-.514c.723-.723 1.121-1.684 1.121-2.706 0-2.112-1.718-3.829-3.828-3.829-1.023 0-1.984.398-2.707 1.122l-2.265 2.264c-.853-1.934-2.356-3.485-4.2-4.416l.001-3.189.332.083c.361.09.733.136 1.106.136 2.516 0 4.562-2.046 4.562-4.562v-2.82l2.189-1.095-1.765-6.179c1.528-.856 2.575-2.471 2.575-4.343 0-1.34-.522-2.6-1.471-3.545-.944-.943-2.198-1.461-3.529-1.461-.004 0-.008 0-.012 0h-7.988c-1.483 0-2.765.82-3.456 2.024-4.191.192-7.544 3.652-7.544 7.889 0 1.567.459 3.084 1.328 4.387l.518.777-.351.702c-.324.648-.495 1.374-.495 2.098 0 2.304 1.649 4.25 3.922 4.629l2.078.346v4.206c-.169.136-.341.266-.493.427-.322.34-.565.727-.77 1.131-.578-1.548-2.065-2.611-3.737-2.611-.374 0-.744.052-1.099.155-2.119.605-3.352 2.823-2.748 4.945l7.172 25.099c.977 3.415 4.14 5.801 7.693 5.801h42.982c1.197 0 2.322-.531 3.087-1.458.763-.925 1.067-2.14.836-3.331-.361-1.86-2.061-3.211-4.041-3.211zm-9.882-2c1.103 0 2 .897 2 2h-7c-.552 0-1-.449-1-1v-1h4.17.83zm-8-.807v1.807c0 .352.072.686.184 1h-13.627c.39-.26.771-.536 1.13-.844l9.753-8.361zm3.755-12.077 2.04 10.884h-4.118l-3.749-9.372-1.857.743.585 1.463-10.27 8.803c-1.778 1.524-4.045 2.363-6.386 2.363h-1.966c-.897 0-1.743-.305-2.425-.826l1.763-1.102c3.313-2.071 5.625-5.398 6.456-9.196.04-.012.081-.017.121-.03l15.684-5.228c.683-.228 1.157-.804 1.302-1.488 1.414.359 2.541 1.498 2.82 2.986zm-22.655 3.198c.216.177.455.324.711.435-.771 3.149-2.73 5.896-5.499 7.626l-1.939 1.212c-.069-.159-.136-.319-.185-.489l-1.538-5.383c.617.179 1.256.285 1.913.285 1.839 0 3.567-.716 4.866-2.016zm30.9-28.314c2.757 0 5 2.243 4.999 5.007l-.022.903.768.197c1.327.342 2.255 1.532 2.255 2.893 0 1.654-1.346 3-3 3h-16v-4h5c3.309 0 6-2.691 6-6 0-.688-.126-1.351-.345-1.974.115-.008.229-.026.345-.026zm-19 6c-2.206 0-4-1.794-4-4s1.794-4 4-4c.552 0 1.096.117 1.615.348l1.516.613-.116-1.658c-.007-.1-.015-.201-.015-.303 0-2.757 2.243-5 5-5s5 2.243 5 4.977l-.005.942.802.162c1.856.374 3.203 2.023 3.203 3.919 0 2.206-1.794 4-4 4h-5v-2c0-1.103-.897-2-2-2h-2c-1.103 0-2 .897-2 2v2zm4 14.279v-16.279h2v17.721l-15.684 5.228c-.262.087-.539.045-.774-.077l2.66-2.66zm-12.121-3.744c.341-.34.811-.535 1.293-.535 1.008 0 1.828.82 1.828 1.829 0 .488-.19.948-.535 1.293l-9.449 9.449c-.922.921-2.148 1.429-3.453 1.429-.944 0-1.841-.279-2.627-.784l-1.689-5.911 5.432-1.811.235 1.177-1.622 1.622 1.414 1.414zm-15.662.346c-.042-.756.222-1.476.742-2.027.521-.551 1.226-.854 1.983-.854 1.297 0 2.423.923 2.677 2.194l.665 3.324-5.586 1.862-.287-1.005zm10.428 2.06-2.031 2.031-1.034-5.17c-.068-.34-.183-.66-.319-.968 1.592.854 2.831 2.313 3.384 4.107zm-12.395-12.413c-1.304-.217-2.25-1.335-2.25-2.656 0-.416.099-.832.284-1.204l.87-1.739-1.162-1.743c-.649-.974-.992-2.107-.992-3.278 0-2.951 2.177-5.396 5.008-5.832.041 2.17 1.812 3.924 3.992 3.924v-2c-1.103 0-2-.897-2-2.005 0-1.103.897-2 2-2h7.99.007c.801 0 1.554.311 2.12.876.57.568.883 1.325.883 2.13 0 1.654-1.346 2.999-3 2.999h-1.999c-5.514 0-10 4.486-10 10v2.82zm3.751-2.528c0-4.411 3.589-8 8-8h1.999c.177 0 .345-.034.517-.052l1.294 4.529-1.811.905v4.057c0 1.413-1.149 2.562-2.562 2.562-.209 0-.418-.026-.622-.077l-3.574-.894-.484 1.94 1.242.31v2.961c-.658-.155-1.339-.241-2.034-.241h-1.023c-.321 0-.636.033-.942.095zm48.542 41.27c-.382.464-.944.73-1.543.73h-42.982c-2.665 0-5.037-1.79-5.769-4.352l-7.172-25.098c-.303-1.061.313-2.17 1.376-2.474.177-.051.361-.076.547-.076.888 0 1.679.596 1.923 1.449l6.342 22.2c.732 2.561 3.104 4.351 5.769 4.351h39.848c1.009 0 1.901.685 2.078 1.593.118.611-.029 1.207-.417 1.677z"/><path d="m55 11c2.757 0 5-2.243 5-5s-2.243-5-5-5-5 2.243-5 5 2.243 5 5 5zm0-8c1.654 0 3 1.346 3 3s-1.346 3-3 3-3-1.346-3-3 1.346-3 3-3z"/></g></g></svg>