<svg width="12" height="12" viewBox="0 0 12 12" fill="none" xmlns="http://www.w3.org/2000/svg">
<path d="M6.65528 4.15375C6.70169 4.10746 6.76149 4.07695 6.82621 4.06651C6.89093 4.05608 6.95729 4.06627 7.0159 4.09563L10.0015 6.5625V9.375C10.0015 9.54076 9.93568 9.69973 9.81847 9.81695C9.70126 9.93415 9.54229 10 9.37653 10H0.626526C0.460766 10 0.301794 9.93415 0.184584 9.81695C0.0673739 9.69973 0.00152588 9.54076 0.00152588 9.375V8.125L2.28028 5.40375C2.33136 5.35286 2.39847 5.32119 2.47024 5.31413C2.542 5.30707 2.614 5.32504 2.67403 5.365L4.33653 7.09813L6.65528 4.15438V4.15375Z" fill="#152766" fill-opacity="0.7"/>
<path fill-rule="evenodd" clip-rule="evenodd" d="M2.81274 3.125C3.22714 3.125 3.62457 2.96038 3.9176 2.66735C4.21062 2.37433 4.37524 1.9769 4.37524 1.5625C4.37524 1.1481 4.21062 0.750671 3.9176 0.457646C3.62457 0.16462 3.22714 0 2.81274 0C2.39834 0 2.00092 0.16462 1.70789 0.457646C1.41486 0.750671 1.25024 1.1481 1.25024 1.5625C1.25024 1.9769 1.41486 2.37433 1.70789 2.66735C2.00092 2.96038 2.39834 3.125 2.81274 3.125Z" fill="#152766" fill-opacity="0.7"/>
</svg>
