<svg width="169" height="218" viewBox="0 0 169 218" fill="none" xmlns="http://www.w3.org/2000/svg">
<path d="M84.552 0C38.42 0 0.889999 37.535 0.889999 83.672C0.889999 116.639 14.692 149.986 40.804 180.109C60.307 202.608 79.635 215.355 80.449 215.887C81.695 216.702 83.124 217.109 84.553 217.109C85.981 217.109 87.41 216.702 88.657 215.887C89.47 215.355 108.801 202.608 128.304 180.11C154.418 149.986 168.221 116.639 168.221 83.672C168.22 37.535 130.686 0 84.552 0ZM84.552 200.4C69.165 188.934 15.89 144.806 15.89 83.672C15.89 45.806 46.691 15 84.552 15C122.416 15 153.22 45.806 153.22 83.672C153.22 144.806 99.94 188.934 84.552 200.4Z" fill="#152766" fill-opacity="0.7"/>
<path d="M84.557 50.449C66.247 50.449 51.351 65.346 51.351 83.658C51.351 101.965 66.247 116.859 84.557 116.859C102.867 116.859 117.762 101.965 117.762 83.658C117.762 65.347 102.866 50.449 84.557 50.449ZM84.557 101.859C74.518 101.859 66.351 93.694 66.351 83.658C66.351 73.617 74.518 65.449 84.557 65.449C94.595 65.449 102.762 73.617 102.762 83.658C102.762 93.694 94.595 101.859 84.557 101.859Z" fill="#152766" fill-opacity="0.7"/>
</svg>
