<svg width="14" height="14" viewBox="0 0 14 14" fill="none" xmlns="http://www.w3.org/2000/svg">
<path d="M7.00002 8.16667C8.28685 8.16667 9.33335 7.12017 9.33335 5.83333C9.33335 4.5465 8.28685 3.5 7.00002 3.5C5.71319 3.5 4.66669 4.5465 4.66669 5.83333C4.66669 7.12017 5.71319 8.16667 7.00002 8.16667ZM7.00002 4.66667C7.64344 4.66667 8.16669 5.18992 8.16669 5.83333C8.16669 6.47675 7.64344 7 7.00002 7C6.3566 7 5.83335 6.47675 5.83335 5.83333C5.83335 5.18992 6.3566 4.66667 7.00002 4.66667Z" fill="#152766" fill-opacity="0.7"/>
<path d="M6.66164 12.7248C6.76036 12.7953 6.87865 12.8332 6.99997 12.8332C7.12129 12.8332 7.23958 12.7953 7.3383 12.7248C7.51564 12.5994 11.6836 9.59 11.6666 5.83333C11.6666 3.26025 9.57305 1.16666 6.99997 1.16666C4.42689 1.16666 2.3333 3.26025 2.3333 5.83041C2.31639 9.59 6.4843 12.5994 6.66164 12.7248ZM6.99997 2.33333C8.93022 2.33333 10.5 3.90308 10.5 5.83625C10.5122 8.42508 7.9403 10.7497 6.99997 11.5121C6.06022 10.7491 3.48772 8.42391 3.49997 5.83333C3.49997 3.90308 5.06972 2.33333 6.99997 2.33333Z" fill="#152766" fill-opacity="0.7"/>
</svg>
