<svg width="31" height="31" viewBox="0 0 31 31" fill="none" xmlns="http://www.w3.org/2000/svg">
<path d="M22.7656 20.1016C21.9028 20.1016 21.1066 20.4043 20.483 20.9099L14.2104 16.3719C14.3154 15.7954 14.3154 15.2046 14.2104 14.6281L20.483 10.0901C21.1066 10.5957 21.9028 10.8984 22.7656 10.8984C24.7697 10.8984 26.3984 9.26973 26.3984 7.26562C26.3984 5.26152 24.7697 3.63281 22.7656 3.63281C20.7615 3.63281 19.1328 5.26152 19.1328 7.26562C19.1328 7.6168 19.1813 7.95283 19.2751 8.27373L13.3173 12.5877C12.4333 11.4161 11.0286 10.6562 9.44531 10.6562C6.76914 10.6562 4.60156 12.8238 4.60156 15.5C4.60156 18.1762 6.76914 20.3438 9.44531 20.3438C11.0286 20.3438 12.4333 19.5839 13.3173 18.4123L19.2751 22.7263C19.1813 23.0472 19.1328 23.3862 19.1328 23.7344C19.1328 25.7385 20.7615 27.3672 22.7656 27.3672C24.7697 27.3672 26.3984 25.7385 26.3984 23.7344C26.3984 21.7303 24.7697 20.1016 22.7656 20.1016ZM22.7656 5.69141C23.6345 5.69141 24.3398 6.39678 24.3398 7.26562C24.3398 8.13447 23.6345 8.83984 22.7656 8.83984C21.8968 8.83984 21.1914 8.13447 21.1914 7.26562C21.1914 6.39678 21.8968 5.69141 22.7656 5.69141ZM9.44531 18.1641C7.97705 18.1641 6.78125 16.9683 6.78125 15.5C6.78125 14.0317 7.97705 12.8359 9.44531 12.8359C10.9136 12.8359 12.1094 14.0317 12.1094 15.5C12.1094 16.9683 10.9136 18.1641 9.44531 18.1641ZM22.7656 25.3086C21.8968 25.3086 21.1914 24.6032 21.1914 23.7344C21.1914 22.8655 21.8968 22.1602 22.7656 22.1602C23.6345 22.1602 24.3398 22.8655 24.3398 23.7344C24.3398 24.6032 23.6345 25.3086 22.7656 25.3086Z" fill="#152766"/>
</svg>
